<?xml version="1.0" encoding="UTF-8" standalone="no"?>
<!-- Created with Inkscape (http://www.inkscape.org/) -->

<svg
   width="170.09689mm"
   height="203.58203mm"
   viewBox="0 0 170.09689 203.58203"
   version="1.1"
   id="svg5"
   inkscape:version="1.1.1 (3bf5ae0d25, 2021-09-20)"
   sodipodi:docname="logo.svg"
   xmlns:inkscape="http://www.inkscape.org/namespaces/inkscape"
   xmlns:sodipodi="http://sodipodi.sourceforge.net/DTD/sodipodi-0.dtd"
   xmlns:xlink="http://www.w3.org/1999/xlink"
   xmlns="http://www.w3.org/2000/svg"
   xmlns:svg="http://www.w3.org/2000/svg">
  <sodipodi:namedview
     id="namedview7"
     pagecolor="#505050"
     bordercolor="#eeeeee"
     borderopacity="1"
     inkscape:pageshadow="0"
     inkscape:pageopacity="0"
     inkscape:pagecheckerboard="0"
     inkscape:document-units="mm"
     showgrid="false"
     fit-margin-top="0"
     fit-margin-left="0"
     fit-margin-right="0"
     fit-margin-bottom="0"
     inkscape:zoom="0.73228114"
     inkscape:cx="331.83976"
     inkscape:cy="333.20536"
     inkscape:window-width="1920"
     inkscape:window-height="1020"
     inkscape:window-x="0"
     inkscape:window-y="28"
     inkscape:window-maximized="1"
     inkscape:current-layer="layer1" />
  <defs
     id="defs2">
    <linearGradient
       inkscape:collect="always"
       id="linearGradient10566">
      <stop
         style="stop-color:#ff8eac;stop-opacity:1"
         offset="0"
         id="stop10562" />
      <stop
         style="stop-color:#bbffde;stop-opacity:1"
         offset="1"
         id="stop10564" />
    </linearGradient>
    <inkscape:path-effect
       effect="spiro"
       id="path-effect1788"
       is_visible="true"
       lpeversion="1" />
    <inkscape:path-effect
       effect="spiro"
       id="path-effect1731"
       is_visible="true"
       lpeversion="1" />
    <inkscape:path-effect
       effect="spiro"
       id="path-effect1678"
       is_visible="true"
       lpeversion="1" />
    <inkscape:path-effect
       effect="spiro"
       id="path-effect1625"
       is_visible="true"
       lpeversion="1" />
    <inkscape:path-effect
       effect="spiro"
       id="path-effect1572"
       is_visible="true"
       lpeversion="1" />
    <inkscape:path-effect
       effect="powerstroke"
       id="path-effect1519"
       is_visible="true"
       lpeversion="1"
       offset_points="0,4.99214"
       not_jump="false"
       sort_points="true"
       interpolator_type="CubicBezierJohan"
       interpolator_beta="0.2"
       start_linecap_type="zerowidth"
       linejoin_type="extrp_arc"
       miter_limit="4"
       scale_width="1"
       end_linecap_type="zerowidth" />
    <inkscape:path-effect
       effect="spiro"
       id="path-effect1466"
       is_visible="true"
       lpeversion="1" />
    <inkscape:path-effect
       effect="spiro"
       id="path-effect1409"
       is_visible="true"
       lpeversion="1" />
    <inkscape:path-effect
       effect="spiro"
       id="path-effect1356"
       is_visible="true"
       lpeversion="1" />
    <inkscape:path-effect
       effect="spiro"
       id="path-effect1303"
       is_visible="true"
       lpeversion="1" />
    <inkscape:path-effect
       effect="spiro"
       id="path-effect1250"
       is_visible="true"
       lpeversion="1" />
    <inkscape:path-effect
       effect="spiro"
       id="path-effect1197"
       is_visible="true"
       lpeversion="1" />
    <inkscape:path-effect
       effect="bspline"
       id="path-effect1140"
       is_visible="true"
       lpeversion="1"
       weight="33.333333"
       steps="2"
       helper_size="0"
       apply_no_weight="true"
       apply_with_weight="true"
       only_selected="false" />
    <inkscape:path-effect
       effect="spiro"
       id="path-effect908"
       is_visible="true"
       lpeversion="1" />
    <linearGradient
       inkscape:collect="always"
       xlink:href="#linearGradient10566"
       id="linearGradient10568"
       x1="43.648304"
       y1="82.648209"
       x2="112.95869"
       y2="237.80733"
       gradientUnits="userSpaceOnUse" />
  </defs>
  <g
     inkscape:label="Layer 1"
     inkscape:groupmode="layer"
     id="layer1"
     transform="translate(-17.459816,-60.23098)">
    <path
       style="fill:url(#linearGradient10568);fill-opacity:1;stroke:#000000;stroke-width:0.264583px;stroke-linecap:butt;stroke-linejoin:miter;stroke-opacity:0"
       d="m 44.730372,118.11336 c -2.790252,-4.99101 -2.876245,-11.39271 -0.221064,-16.45687 2.655181,-5.064157 7.969547,-8.634401 13.66166,-9.178037 4.454342,-0.425421 9.010269,0.938678 12.65848,3.529568 3.64821,2.590889 6.398521,6.359069 8.011032,10.533029 1.61251,4.17396 2.113707,8.73827 1.721314,13.19565 -0.392394,4.45737 -1.661173,8.81237 -3.46995,12.9051 -3.617555,8.18547 -9.314463,15.24955 -14.999854,22.16077 -5.68539,6.91122 -11.484995,13.86774 -15.362211,21.93346 -6.36419,13.23934 -7.030475,28.99573 -2.335456,42.91477 4.695019,13.91904 14.593062,25.91656 27.074558,33.66222 12.481496,7.74565 27.428849,11.28185 42.099069,10.52855 14.67023,-0.7533 29.02603,-5.71866 41.35608,-13.7032 12.3007,-7.96554 22.77023,-19.13806 28.48176,-32.63381 5.71153,-13.49575 6.33867,-29.37591 0.28411,-42.72129 -3.02728,-6.67269 -7.66994,-12.63242 -13.52377,-17.03945 -5.85382,-4.40704 -12.9191,-7.23304 -20.21795,-7.878 -7.29886,-0.64496 -14.80736,0.9212 -21.1417,4.60432 -6.33434,3.68312 -11.44375,9.49223 -14.10501,16.31916 -0.95126,2.44026 -1.59941,5.04215 -1.47704,7.65841 0.12237,2.61625 1.07563,5.25631 2.95581,7.07968 1.71823,1.66631 4.16297,2.55557 6.55022,2.38262 2.38725,-0.17295 4.67828,-1.40531 6.13839,-3.30188 1.4601,-1.89657 2.06559,-4.42657 1.62229,-6.77867 -0.4433,-2.3521 -1.92819,-4.48813 -3.9785,-5.72309 2.19891,1.52437 3.92934,3.71506 4.90308,6.2072 0.97374,2.49213 1.18687,5.27567 0.60389,7.887 -0.58297,2.61133 -1.95971,5.03993 -3.90091,6.8813 -1.9412,1.84138 -4.43903,3.08811 -7.07747,3.53255 -2.55002,0.42954 -5.20831,0.1132 -7.62358,-0.81071 -2.41527,-0.9239 -4.58763,-2.44494 -6.35659,-4.33118 -3.53792,-3.77248 -5.39178,-8.91024 -5.85364,-14.06147 -0.46186,-5.15123 0.38067,-10.3408 1.68039,-15.34672 1.29972,-5.00591 3.05499,-9.88177 4.46948,-14.85648 3.44148,-12.10358 4.83986,-24.90696 2.93374,-37.34509 C 108.38491,97.424638 103.04573,85.36581 94.271853,76.345858 85.95685,67.79765 74.538391,62.166273 62.634056,61.460604 c -11.904334,-0.70567 -24.15598,3.701505 -32.411367,12.307301 -4.127693,4.302899 -7.240545,9.587297 -8.916479,15.309537 -1.675934,5.72224 -1.903211,11.873938 -0.566311,17.684748 1.3369,5.81081 4.244475,11.26422 8.388952,15.55096 4.144476,4.28673 9.521037,7.38567 15.328619,8.73651 4.91959,1.1443 10.309118,0.98593 14.756134,-1.40903 2.223508,-1.19748 4.168269,-2.94347 5.484111,-5.09904 1.315842,-2.15558 1.983136,-4.72421 1.750367,-7.23892 -0.253409,-2.73769 -1.589769,-5.36036 -3.655701,-7.17448 -2.065931,-1.81413 -4.839326,-2.80031 -7.586801,-2.69775 -2.747475,0.10256 -5.439628,1.29276 -7.364561,3.25586 -1.924934,1.9631 -3.062047,4.6781 -3.110647,7.42706 z"
       id="path1786"
       inkscape:path-effect="#path-effect1788"
       inkscape:original-d="m 44.730372,118.11336 c 0,0 4.184206,-20.490305 13.440596,-25.634907 9.256378,-5.144598 -10.707509,53.730937 -11.441189,84.257577 -0.73369,30.52664 118.626411,52.18449 108.194251,73.40234 -43.9187,89.32574 -30.26766,-73.6764 -40.22256,-79.34907 -9.95488,-5.67268 -1.95743,10.7295 1.47877,14.73809 3.4362,4.00859 10.3324,-13.42102 10.3324,-13.42102 0,0 -4.43526,16.40618 -5.47141,24.50805 -1.03615,8.10187 -7.37496,-32.89387 -13.68394,-49.40656 -6.30897,-16.5127 -4.41069,-37.41231 -13.085437,-70.862002 -6.488151,-25.018264 -48.073148,56.524512 -49.814383,54.703802 -14.596856,-15.26311 13.260341,-10.3265 21.990612,-13.74699 8.730219,-3.42049 -21.71771,0.81069 -21.71771,0.81069 z"
       sodipodi:nodetypes="cssssscsssssc" />
  </g>
</svg>
