<?xml version="1.0" encoding="UTF-8" standalone="no"?>
<!-- Created with Inkscape (http://www.inkscape.org/) -->

<svg
   width="170.09689mm"
   height="203.58203mm"
   viewBox="0 0 170.09689 203.58203"
   version="1.1"
   id="svg5"
   inkscape:version="1.1.1 (3bf5ae0d25, 2021-09-20)"
   sodipodi:docname="logo.svg"
   xmlns:inkscape="http://www.inkscape.org/namespaces/inkscape"
   xmlns:sodipodi="http://sodipodi.sourceforge.net/DTD/sodipodi-0.dtd"
   xmlns="http://www.w3.org/2000/svg"
   xmlns:svg="http://www.w3.org/2000/svg">
  <sodipodi:namedview
     id="namedview7"
     pagecolor="#505050"
     bordercolor="#eeeeee"
     borderopacity="1"
     inkscape:pageshadow="0"
     inkscape:pageopacity="0"
     inkscape:pagecheckerboard="0"
     inkscape:document-units="mm"
     showgrid="false"
     fit-margin-top="0"
     fit-margin-left="0"
     fit-margin-right="0"
     fit-margin-bottom="0"
     inkscape:zoom="0.73228114"
     inkscape:cx="331.83976"
     inkscape:cy="333.20536"
     inkscape:window-width="1920"
     inkscape:window-height="1020"
     inkscape:window-x="0"
     inkscape:window-y="28"
     inkscape:window-maximized="1"
     inkscape:current-layer="layer1" />
  <defs
     id="defs2">
    <inkscape:path-effect
       effect="spiro"
       id="path-effect1788"
       is_visible="true"
       lpeversion="1" />
    <inkscape:path-effect
       effect="spiro"
       id="path-effect1731"
       is_visible="true"
       lpeversion="1" />
    <inkscape:path-effect
       effect="spiro"
       id="path-effect1678"
       is_visible="true"
       lpeversion="1" />
    <inkscape:path-effect
       effect="spiro"
       id="path-effect1625"
       is_visible="true"
       lpeversion="1" />
    <inkscape:path-effect
       effect="spiro"
       id="path-effect1572"
       is_visible="true"
       lpeversion="1" />
    <inkscape:path-effect
       effect="powerstroke"
       id="path-effect1519"
       is_visible="true"
       lpeversion="1"
       offset_points="0,4.99214"
       not_jump="false"
       sort_points="true"
       interpolator_type="CubicBezierJohan"
       interpolator_beta="0.2"
       start_linecap_type="zerowidth"
       linejoin_type="extrp_arc"
       miter_limit="4"
       scale_width="1"
       end_linecap_type="zerowidth" />
    <inkscape:path-effect
       effect="spiro"
       id="path-effect1466"
       is_visible="true"
       lpeversion="1" />
    <inkscape:path-effect
       effect="spiro"
       id="path-effect1409"
       is_visible="true"
       lpeversion="1" />
    <inkscape:path-effect
       effect="spiro"
       id="path-effect1356"
       is_visible="true"
       lpeversion="1" />
    <inkscape:path-effect
       effect="spiro"
       id="path-effect1303"
       is_visible="true"
       lpeversion="1" />
    <inkscape:path-effect
       effect="spiro"
       id="path-effect1250"
       is_visible="true"
       lpeversion="1" />
    <inkscape:path-effect
       effect="spiro"
       id="path-effect1197"
       is_visible="true"
       lpeversion="1" />
    <inkscape:path-effect
       effect="bspline"
       id="path-effect1140"
       is_visible="true"
       lpeversion="1"
       weight="33.333333"
       steps="2"
       helper_size="0"
       apply_no_weight="true"
       apply_with_weight="true"
       only_selected="false" />
    <inkscape:path-effect
       effect="spiro"
       id="path-effect908"
       is_visible="true"
       lpeversion="1" />
  </defs>
  <g
     inkscape:label="Layer 1"
     inkscape:groupmode="layer"
     id="layer1"
     transform="translate(-17.459816,-60.23098)">
    <path
       style="fill:#ff495c;fill-opacity:1;stroke:#000000;stroke-width:0.264583px;stroke-linecap:butt;stroke-linejoin:miter;stroke-opacity:0"
       d="m 42.451585,120.6428 c -1.889903,-2.74593 -2.99451,-6.02599 -3.150686,-9.35578 -0.156177,-3.32978 0.636568,-6.69883 2.261156,-9.6096 1.624588,-2.910768 4.075922,-5.354114 6.991977,-6.969192 2.916054,-1.615078 6.28768,-2.39682 9.616936,-2.229775 4.315309,0.21652 8.495045,2.026154 11.768858,4.845893 3.273812,2.819734 5.654588,6.613374 7.006756,10.717074 2.704336,8.20742 1.28306,17.32946 -2.13341,25.26689 -6.832939,15.87486 -20.986955,27.66888 -28.083393,43.42772 -5.993977,13.31064 -6.434771,28.92694 -1.676967,42.72782 4.757805,13.80087 14.574285,25.70719 26.950068,33.44934 12.375783,7.74215 27.201307,11.3535 41.78421,10.69027 14.5829,-0.66323 28.88329,-5.53106 41.13694,-13.46509 12.14462,-7.86344 22.44968,-18.93048 28.04949,-32.27093 5.59981,-13.34045 6.18079,-29.00719 0.22022,-42.1904 -2.98029,-6.5916 -7.54202,-12.48702 -13.29474,-16.87308 -5.75273,-4.38607 -12.69673,-7.23613 -19.89403,-7.96431 -7.1973,-0.72818 -14.6258,0.69387 -20.95485,4.19737 -6.32905,3.50349 -11.51158,9.09778 -14.34865,15.75228 -1.03773,2.43405 -1.77285,5.05013 -1.66697,7.69405 0.053,1.32195 0.31873,2.64055 0.8394,3.85681 0.52068,1.21625 1.30004,2.32831 2.30634,3.18723 1.72028,1.46832 4.09872,2.13384 6.33122,1.77155 2.23251,-0.36229 4.27843,-1.74579 5.4461,-3.68277 1.16766,-1.93698 1.43581,-4.39217 0.71379,-6.53554 -0.72203,-2.14336 -2.42108,-3.93588 -4.52275,-4.77153 2.32085,1.24712 4.25008,3.21101 5.45568,5.55369 1.2056,2.34268 1.68237,5.05404 1.34825,7.66747 -0.33412,2.61342 -1.47769,5.11763 -3.23389,7.08166 -1.7562,1.96402 -4.11746,3.37938 -6.67741,4.0025 -2.55569,0.62208 -5.28306,0.45551 -7.77962,-0.37257 -2.49656,-0.82808 -4.76155,-2.30523 -6.60443,-4.18201 -3.68576,-3.75356 -5.60131,-8.99757 -6.03311,-14.24043 -0.43181,-5.24287 0.51843,-10.51197 1.93561,-15.5781 1.41718,-5.06613 3.30072,-9.9903 4.79761,-15.03345 3.58005,-12.06151 4.91203,-24.89072 2.93829,-37.31655 C 108.32185,97.465481 102.93911,85.46592 94.271853,76.345858 85.753412,67.382386 74.006635,61.360219 61.672862,60.473823 49.339089,59.587428 36.560526,64.058183 28.014226,72.995096 c -4.27315,4.468457 -7.467206,9.978612 -9.120394,15.936287 -1.653188,5.957674 -1.751449,12.353137 -0.181124,18.333177 1.570326,5.98005 4.816876,11.52478 9.334719,15.74568 4.517843,4.2209 10.300203,7.09244 16.410043,8.03942 4.817109,0.74661 9.940863,0.26253 14.204165,-2.10099 2.131651,-1.18176 4.019925,-2.82329 5.402978,-4.8302 1.383052,-2.0069 2.250083,-4.38214 2.383469,-6.8158 0.198581,-3.62317 -1.298139,-7.30395 -3.968871,-9.76037 -2.670731,-2.45643 -6.46358,-3.64075 -10.057541,-3.1405 -3.593961,0.50025 -6.919201,2.67536 -8.817578,5.76777 -1.898378,3.0924 -2.333005,7.04202 -1.152507,10.47323 z"
       id="path1786"
       inkscape:path-effect="#path-effect1788"
       inkscape:original-d="m 42.451585,120.6428 c 0,0 6.462993,-23.019745 15.719383,-28.164347 9.256378,-5.144598 -10.707509,53.730937 -11.441189,84.257577 -0.73369,30.52664 118.626411,52.18449 108.194251,73.40234 -43.9187,89.32574 -30.26766,-73.6764 -40.22256,-79.34907 -9.95488,-5.67268 -1.95743,10.7295 1.47877,14.73809 3.4362,4.00859 7.96836,-13.21829 7.96836,-13.21829 0,0 -2.07122,16.20345 -3.10737,24.30532 -1.03615,8.10187 -7.37496,-32.89387 -13.68394,-49.40656 -6.30897,-16.5127 -4.41069,-37.41231 -13.085437,-70.862002 -6.488151,-25.018264 -48.073148,56.524512 -49.814383,54.703802 -14.596856,-15.26311 13.260341,-10.3265 21.990612,-13.74699 8.730219,-3.42049 -23.996497,3.34013 -23.996497,3.34013 z"
       sodipodi:nodetypes="cssssscsssssc" />
  </g>
</svg>
